<svg width="189" height="151" xmlns="http://www.w3.org/2000/svg" xmlns:xlink="http://www.w3.org/1999/xlink"><defs><path id="a" d="M0 0h160v136H0z"/><path id="c" d="M0 0h160v36H0z"/><path id="e" d="M0 0h13v25H0z"/><path id="g" d="M0 0h13v25H0z"/><path id="i" d="M0 0h13v25H0z"/><path id="k" d="M0 0h13v25H0z"/><path id="m" d="M0 143h171V0H0z"/></defs><g fill="none" fill-rule="evenodd"><ellipse fill="#D8D8D8" cx="94.5" cy="143.5" rx="94.5" ry="7.5"/><g transform="translate(8)"><path d="M158.184 143H21.523C15.713 143 11 138.307 11 132.516V17.484C11 11.693 15.713 7 21.523 7h137.053C165.437 7 171 12.542 171 19.377v110.855c0 7.05-5.739 12.768-12.816 12.768" fill="#5A2B9D"/><g transform="translate(0 7)"><mask id="b" fill="#fff"><use xlink:href="#a"/></mask><path d="M145.639 136H14.363C6.43 136-.001 129.595-.001 121.692V14.95C-.001 6.694 6.72 0 15.008 0h129.986C153.28 0 160 6.694 160 14.95v106.742c0 7.903-6.43 14.308-14.361 14.308" fill="#ECE1D1" mask="url(#b)"/></g><g transform="translate(0 6)"><mask id="d" fill="#fff"><use xlink:href="#c"/></mask><path d="M160 36H0V15.46C0 6.923 6.87 0 15.345 0h129.307C153.131 0 160 6.923 160 15.46V36Z" fill="#FBB56D" mask="url(#d)"/></g><g transform="translate(38)"><mask id="f" fill="#fff"><use xlink:href="#e"/></mask><path d="M6.5 25C2.91 25 0 22.12 0 18.569V6.43C0 2.879 2.91-.001 6.5-.001S13 2.88 13 6.431v12.138C13 22.12 10.09 25 6.5 25" fill="#5A2B9D" mask="url(#f)"/></g><g transform="translate(35)"><mask id="h" fill="#fff"><use xlink:href="#g"/></mask><path d="M6.5 25C2.91 25 0 22.12 0 18.569V6.43C0 2.879 2.91-.001 6.5-.001S13 2.88 13 6.431v12.138C13 22.12 10.09 25 6.5 25" fill="#FC789E" mask="url(#h)"/></g><g transform="translate(107)"><mask id="j" fill="#fff"><use xlink:href="#i"/></mask><path d="M6.5 25C2.91 25 0 22.12 0 18.569V6.43C0 2.879 2.91-.001 6.5-.001S13 2.88 13 6.431v12.138C13 22.12 10.09 25 6.5 25" fill="#5A2B9D" mask="url(#j)"/></g><g transform="translate(105)"><mask id="l" fill="#fff"><use xlink:href="#k"/></mask><path d="M6.5 25C2.91 25 0 22.12 0 18.569V6.43C0 2.879 2.91-.001 6.5-.001S13 2.88 13 6.431v12.138C13 22.12 10.09 25 6.5 25" fill="#FC789E" mask="url(#l)"/></g><mask id="n" fill="#fff"><use xlink:href="#m"/></mask><path fill="#E0D5C6" mask="url(#n)" d="M30 71h19V52H30zM30 127h19v-19H30zM94 127h19v-19H94z"/><path d="M70 100c-6.074 0-11-4.926-11-11s4.926-11 11-11 11 4.926 11 11-4.926 11-11 11" fill="#FC789E" mask="url(#n)"/><path fill="#E0D5C6" mask="url(#n)" d="M93 98h19V79H93zM116 70h19V51h-19z"/><path stroke="#ECE1D1" stroke-width="1.942" stroke-linecap="round" stroke-linejoin="round" mask="url(#n)" d="M65 88.985 68.64 92 76 85"/></g></g></svg>