<svg width="153" height="157" xmlns="http://www.w3.org/2000/svg"><g fill="none" fill-rule="evenodd"><ellipse fill="#D8D8D8" cx="76.5" cy="150.458" rx="76.5" ry="6.542"/><g transform="translate(115.564 99.76)"><ellipse fill="#37C1D4" cx="10.987" cy="11.039" rx="10.987" ry="11.039"/><path stroke="#96F2FF" stroke-width="1.722" d="m2.718 3.552 15.918 15.994"/></g><path d="M148.524 137.358v.034c0 6.087-4.935 11.022-11.022 11.022H122.11c-6.087 0-11.022-4.935-11.022-11.022v-.034c0-6.087 4.935-11.022 11.022-11.022h15.392c6.087 0 11.022 4.935 11.022 11.022Z" fill="#F5B66D"/><path stroke="#D29044" stroke-width="1.837" d="m130.213 125.927.407 21.618"/><g><path fill="#FFF3D8" d="M32.14 42.819h59.13V30.287H32.14z"/><path d="M110.615 68.753 90.41 42.182H31.804L11.598 68.753l.106 68.148c0 6.585 5.286 11.922 11.808 11.922h75.19c6.521 0 11.808-5.337 11.808-11.922l.105-68.148Z" fill="#FFF3D8"/><path fill="#F5B66D" d="M11.394 126.83h99.287V74.867H11.394z"/><path d="M93.02 30.651H29.016c-2.906 0-5.263-2.378-5.263-5.313V5.312C23.752 2.378 26.11 0 29.015 0H93.02c2.906 0 5.262 2.378 5.262 5.312v20.026c0 2.935-2.356 5.313-5.262 5.313" fill="#37C1D4"/><path d="M33.806 24.078c-.745 0-1.349-.61-1.349-1.361V6.577c0-.752.604-1.361 1.349-1.361.744 0 1.348.61 1.348 1.36v16.14c0 .753-.604 1.362-1.348 1.362M44.985 24.078c-.745 0-1.349-.61-1.349-1.361V6.577c0-.752.604-1.361 1.349-1.361.744 0 1.348.61 1.348 1.36v16.14c0 .753-.604 1.362-1.348 1.362M56.163 24.078c-.744 0-1.348-.61-1.348-1.361V6.577c0-.752.604-1.361 1.348-1.361.745 0 1.349.61 1.349 1.36v16.14c0 .753-.604 1.362-1.349 1.362M67.342 24.078c-.744 0-1.348-.61-1.348-1.361V6.577c0-.752.604-1.361 1.348-1.361.745 0 1.349.61 1.349 1.36v16.14c0 .753-.604 1.362-1.349 1.362M78.521 24.078c-.744 0-1.348-.61-1.348-1.361V6.577c0-.752.604-1.361 1.348-1.361.745 0 1.349.61 1.349 1.36v16.14c0 .753-.604 1.362-1.349 1.362M89.7 24.078c-.744 0-1.348-.61-1.348-1.361V6.577c0-.752.604-1.361 1.348-1.361.745 0 1.348.61 1.348 1.36v16.14c0 .753-.603 1.362-1.348 1.362" fill="#28A5B2"/><path fill="#FFF5F8" d="M55.429 115.455h10.226V86.279H55.429z"/><path fill="#FFF5F8" d="M46.093 106.029H74.99V95.704H46.093z"/></g></g></svg>