<svg xmlns="http://www.w3.org/2000/svg" viewBox="0 0 500 500"><g id="freepik--background-complete--inject-107"><path d="M430.31,349.65c-1.8,7.66-9.08,12.87-16.87,11.05-4.67-1.1-8.51-3.76-10.36-7.7a14.32,14.32,0,0,1-.73-9.5c2.16-9.19,10.15-13.09,17.77-11.3a13.07,13.07,0,0,1,7.73,5A15.48,15.48,0,0,1,430.31,349.65Z" style="fill:#dbdbdb;opacity:0.30000000000000004"></path><path d="M424.11,348.22a7.9,7.9,0,0,1-9.41,6.16,8.23,8.23,0,0,1-5.78-4.29,8.5,8.5,0,0,1,9.51-11.6,7.27,7.27,0,0,1,4.31,2.77A8.67,8.67,0,0,1,424.11,348.22Z" style="fill:#dbdbdb;opacity:0.30000000000000004"></path><path d="M172.11,394.1c-1.8,7.66-9.08,12.87-16.86,11-4.68-1.09-8.51-3.75-10.37-7.69a14.26,14.26,0,0,1-.72-9.5c2.15-9.2,10.14-13.09,17.76-11.3a13.09,13.09,0,0,1,7.74,5A15.5,15.5,0,0,1,172.11,394.1Z" style="fill:#dbdbdb;opacity:0.30000000000000004"></path><path d="M165.91,392.67a7.9,7.9,0,0,1-9.4,6.16,8.22,8.22,0,0,1-5.78-4.29,8.5,8.5,0,0,1,9.5-11.61,7.33,7.33,0,0,1,4.31,2.78A8.59,8.59,0,0,1,165.91,392.67Z" style="fill:#dbdbdb;opacity:0.30000000000000004"></path><path d="M298.48,93.71c-1.8,7.66-9.08,12.87-16.87,11.05-4.67-1.1-8.51-3.76-10.36-7.7a14.32,14.32,0,0,1-.73-9.5c2.16-9.19,10.15-13.09,17.77-11.3a13.12,13.12,0,0,1,7.74,5A15.51,15.51,0,0,1,298.48,93.71Z" style="fill:#dbdbdb;opacity:0.30000000000000004"></path><path d="M292.28,92.28a7.9,7.9,0,0,1-9.41,6.16,8.23,8.23,0,0,1-5.78-4.29,8.5,8.5,0,0,1,9.51-11.6,7.27,7.27,0,0,1,4.31,2.77A8.63,8.63,0,0,1,292.28,92.28Z" style="fill:#dbdbdb;opacity:0.30000000000000004"></path><path d="M152.13,239.94c-2.58,11-13,18.52-24.25,15.89-6.72-1.58-12.24-5.4-14.91-11.07a20.57,20.57,0,0,1-1-13.66c3.1-13.22,14.59-18.83,25.55-16.26A18.88,18.88,0,0,1,148.6,222,22.28,22.28,0,0,1,152.13,239.94Z" style="fill:#dbdbdb;opacity:0.30000000000000004"></path><path d="M143.22,237.89c-1.44,6.15-7.28,10.32-13.53,8.86-3.75-.88-6.83-3-8.31-6.18a11.43,11.43,0,0,1-.59-7.61c1.73-7.38,8.14-10.51,14.26-9.07a10.5,10.5,0,0,1,6.2,4A12.44,12.44,0,0,1,143.22,237.89Z" style="fill:#dbdbdb;opacity:0.30000000000000004"></path><path d="M367.69,220.29a8.14,8.14,0,0,1-9.68,6.35,8.47,8.47,0,0,1-5.95-4.42,8.75,8.75,0,0,1,9.78-11.95,7.52,7.52,0,0,1,4.44,2.86A8.87,8.87,0,0,1,367.69,220.29Z" style="fill:#dbdbdb;opacity:0.30000000000000004"></path><path d="M364.13,219.47a4.53,4.53,0,0,1-5.4,3.54,4.75,4.75,0,0,1-3.32-2.46,4.88,4.88,0,0,1,5.46-6.66,4.13,4.13,0,0,1,2.48,1.59A5,5,0,0,1,364.13,219.47Z" style="fill:#dbdbdb;opacity:0.30000000000000004"></path><path d="M194.08,316.41a8.13,8.13,0,0,1-9.68,6.34,8.42,8.42,0,0,1-6-4.42,8.14,8.14,0,0,1-.42-5.45,8.26,8.26,0,0,1,10.2-6.49,7.52,7.52,0,0,1,4.44,2.86A8.87,8.87,0,0,1,194.08,316.41Z" style="fill:#dbdbdb;opacity:0.30000000000000004"></path><path d="M190.52,315.59a4.54,4.54,0,0,1-5.4,3.54,4.69,4.69,0,0,1-3.32-2.47,4.51,4.51,0,0,1-.23-3,4.61,4.61,0,0,1,5.69-3.62,4.19,4.19,0,0,1,2.47,1.59A5,5,0,0,1,190.52,315.59Z" style="fill:#dbdbdb;opacity:0.30000000000000004"></path></g><g id="freepik--Virus--inject-107"><path d="M357,80.31l8.38,7c.38.32,3-.94,3.47-.45s-2.31,6.23-3.44,5.53c-.68-.42-.72-2.45-1-2.68-.52-.39-10-5.1-10-5.1Z" style="fill:#7A56C3"></path><path d="M368.57,87.42s-2.31,2.55-2.7,4.67" style="fill:#263238"></path><path d="M357,80.31l8.38,7c.38.32,3-.94,3.47-.45s-2.31,6.23-3.44,5.53c-.68-.42-.72-2.45-1-2.68-.52-.39-10-5.1-10-5.1Z" style="opacity:0.1"></path><path d="M357.62,65.35l10.88-1c.49,0,1.42-2.75,2.13-2.77s2.77,6,1.48,6.34c-.78.18-2.24-1.22-2.62-1.17-.65.09-10.72,3.5-10.72,3.5Z" style="fill:#7A56C3"></path><path d="M370.86,62.16s.17,3.44,1.39,5.22" style="fill:#263238"></path><path d="M357.62,65.35l10.88-1c.49,0,1.42-2.75,2.13-2.77s2.77,6,1.48,6.34c-.78.18-2.24-1.22-2.62-1.17-.65.09-10.72,3.5-10.72,3.5Z" style="opacity:0.1"></path><path d="M347.51,54.3l7-8.39c.32-.37-.94-2.95-.46-3.46s6.23,2.31,5.54,3.44c-.42.67-2.45.72-2.68,1-.4.53-5.11,10.06-5.11,10.06Z" style="fill:#7A56C3"></path><path d="M354.61,42.68s2.55,2.31,4.67,2.71" style="fill:#263238"></path><path d="M347.51,54.3l7-8.39c.32-.37-.94-2.95-.46-3.46s6.23,2.31,5.54,3.44c-.42.67-2.45.72-2.68,1-.4.53-5.11,10.06-5.11,10.06Z" style="opacity:0.1"></path><path d="M332.54,53.64s-.93-10.4-1-10.88-2.75-1.42-2.78-2.13,6-2.77,6.35-1.48c.18.77-1.22,2.24-1.17,2.62.09.65,3.5,10.72,3.5,10.72Z" style="fill:#7A56C3"></path><path d="M329.35,40.4s3.44-.17,5.22-1.39" style="fill:#263238"></path><path d="M332.54,53.64s-.93-10.4-1-10.88-2.75-1.42-2.78-2.13,6-2.77,6.35-1.48c.18.77-1.22,2.24-1.17,2.62.09.65,3.5,10.72,3.5,10.72Z" style="opacity:0.1"></path><path d="M321.5,63.75l-8.39-7c-.37-.32-2.95.94-3.46.45S312,51,313.08,51.67c.68.42.73,2.45,1,2.68.53.4,10.06,5.11,10.06,5.11Z" style="fill:#7A56C3"></path><path d="M309.88,56.65s2.31-2.56,2.71-4.67" style="fill:#263238"></path><path d="M321.5,63.75l-8.39-7c-.37-.32-2.95.94-3.46.45S312,51,313.08,51.67c.68.42.73,2.45,1,2.68.53.4,10.06,5.11,10.06,5.11Z" style="opacity:0.1"></path><path d="M327.26,75.27l-10.88,1c-.49.05-1.42,2.75-2.13,2.78s-2.77-6-1.48-6.35c.78-.18,2.24,1.22,2.62,1.17.65-.09,10.72-3.5,10.72-3.5Z" style="fill:#7A56C3"></path><path d="M314,78.46s-.17-3.44-1.38-5.22" style="fill:#263238"></path><path d="M327.26,75.27l-10.88,1c-.49.05-1.42,2.75-2.13,2.78s-2.77-6-1.48-6.35c.78-.18,2.24,1.22,2.62,1.17.65-.09,10.72-3.5,10.72-3.5Z" style="opacity:0.1"></path><path d="M338.38,81.82s-6.69,8-7,8.38.94,3,.46,3.47-6.23-2.31-5.54-3.44c.42-.68,2.45-.72,2.68-1,.4-.52,5.11-10,5.11-10Z" style="fill:#7A56C3"></path><path d="M331.27,93.43s-2.55-2.31-4.67-2.7" style="fill:#263238"></path><path d="M338.38,81.82s-6.69,8-7,8.38.94,3,.46,3.47-6.23-2.31-5.54-3.44c.42-.68,2.45-.72,2.68-1,.4-.52,5.11-10,5.11-10Z" style="opacity:0.1"></path><path d="M345.91,90.42s.93,10.4,1,10.89,2.75,1.42,2.77,2.12-6,2.77-6.34,1.48c-.19-.77,1.22-2.24,1.16-2.62-.09-.65-3.5-10.72-3.5-10.72Z" style="fill:#7A56C3"></path><path d="M349.1,103.66s-3.44.17-5.22,1.39" style="fill:#263238"></path><path d="M345.91,90.42s.93,10.4,1,10.89,2.75,1.42,2.77,2.12-6,2.77-6.34,1.48c-.19-.77,1.22-2.24,1.16-2.62-.09-.65-3.5-10.72-3.5-10.72Z" style="opacity:0.1"></path><path d="M358.72,78.17s12.5,7.4,12.91,7.67,2.83-1.29,3.4-.87-1.55,6.49-2.76,5.93c-.73-.33-1-2.35-1.35-2.55-.57-.33-14.35-5.57-14.35-5.57Z" style="fill:#7A56C3"></path><path d="M374.87,85.55s-2,2.83-2.14,5" style="fill:#263238"></path><path d="M357.08,62.85s14.07-3.6,14.56-3.7,1.08-2.92,1.78-3,3.49,5.69,2.24,6.15c-.75.28-2.38-.94-2.75-.85-.64.17-14.09,6.21-14.09,6.21Z" style="fill:#7A56C3"></path><path d="M373.72,56.65s.58,3.41,2,5" style="fill:#263238"></path><path d="M345.09,53.18s7.4-12.5,7.67-12.91-1.29-2.84-.87-3.41,6.49,1.56,5.93,2.77c-.34.72-2.35,1-2.55,1.34-.33.58-5.58,14.36-5.58,14.36Z" style="fill:#7A56C3"></path><path d="M352.47,37s2.83,2,5,2.14" style="fill:#263238"></path><path d="M329.77,54.82s-3.6-14.08-3.71-14.56-2.91-1.09-3-1.79,5.69-3.49,6.15-2.24c.28.75-.95,2.38-.85,2.76.17.63,6.21,14.09,6.21,14.09Z" style="fill:#7A56C3"></path><path d="M323.57,38.18s3.41-.59,5-2" style="fill:#263238"></path><path d="M320.1,66.81s-12.5-7.41-12.92-7.68-2.83,1.3-3.4.88,1.56-6.49,2.77-5.94c.72.34,1,2.36,1.34,2.55.57.33,14.36,5.58,14.36,5.58Z" style="fill:#7A56C3"></path><path d="M304,59.42s2-2.82,2.14-5" style="fill:#263238"></path><path d="M332.16,76.58s-14.08,3.61-14.56,3.71-1.09,2.91-1.79,3-3.49-5.69-2.24-6.15c.75-.27,2.38,1,2.76.85.63-.17,14.09-6.2,14.09-6.2Z" style="fill:#7A56C3"></path><path d="M315.52,82.78s-.59-3.41-2-5" style="fill:#263238"></path><path d="M340,81.78s-7.41,12.5-7.68,12.92,1.29,2.83.87,3.4-6.49-1.56-5.93-2.77c.34-.72,2.36-1,2.55-1.34.33-.57,5.58-14.36,5.58-14.36Z" style="fill:#7A56C3"></path><path d="M332.57,97.93s-2.82-2-5-2.14" style="fill:#263238"></path><path d="M349,90.16s3.61,14.07,3.71,14.56,2.92,1.08,3,1.79-5.69,3.48-6.15,2.24c-.27-.76.95-2.39.85-2.76-.17-.64-6.2-14.09-6.2-14.09Z" style="fill:#7A56C3"></path><path d="M355.24,106.8s-3.41.58-5,2" style="fill:#263238"></path><path d="M363.61,80.59c-3,9.92-10.83,14.87-18.95,16.35a9.71,9.71,0,0,1-9.08-3.74c-2.79-4.17-2.83-10.69-7.24-14.08C322,74.21,314,74.39,315.13,65.7c1.37-10.08,15.38-22,31-17.16a27.8,27.8,0,0,1,11.74,6.9C364.46,62.09,366.36,71.65,363.61,80.59Z" style="fill:#7A56C3"></path><path d="M363.61,80.58c-3.05,9.93-10.83,14.88-18.95,16.36a9.72,9.72,0,0,1-9.08-3.73c-2.79-4.18-2.83-10.71-7.24-14.1C322,74.2,314,74.39,315.13,65.69a13.25,13.25,0,0,1,.32-1.62h0a6.29,6.29,0,0,0,5.36,7.13c4.87.73,11.23-1.25,15.84,5s1,14.55,6.34,17.06C348.92,96,366.9,87.3,364.41,68a.06.06,0,0,0,0-.06A26.54,26.54,0,0,1,363.61,80.58Z" style="opacity:0.1"></path><path d="M357.51,75.6l.39-5.76.63.14,10.59,2.36c.54.12,2.46-2.52,3.24-2.31.35.1.58,1.65.61,3.3,0,2-.29,4.16-1.11,4.1s-2-2.07-2.47-2.14C368.66,75.18,357.51,75.6,357.51,75.6Z" style="fill:#7A56C3"></path><path d="M372.42,70.72s-1,3.8-.23,6.15Z" style="fill:#263238"></path><path d="M358.53,70l10.59,2.36c.54.12,2.46-2.52,3.24-2.31.35.1.58,1.65.61,3.3a4.42,4.42,0,0,0-.58-1.58.67.67,0,0,0-.16-.14c-.2-.13-.4-.08-.64.1-.64.49-1.44,1.7-2.06,1.7S358.84,70.11,358.53,70Z" style="opacity:0.1"></path><path d="M355.33,61.63l-3.79-4.34a1.86,1.86,0,0,0,.22-.14l0,0c1.51-1,9-5.73,9.44-6s0-3.53.66-3.93c.48-.27,3.15,2,4.39,3.77.57.81.84,1.5.48,1.82-.67.59-2.9,0-3.25.22C362.92,53.45,355.33,61.63,355.33,61.63Z" style="fill:#7A56C3"></path><path d="M362.43,47.64s2,3.36,4.18,4.5Z" style="fill:#263238"></path><path d="M351.8,57.12c1.51-1,9-5.73,9.44-6s0-3.53.66-3.93c.48-.27,3.15,2,4.39,3.77a10.18,10.18,0,0,0-2.35-1.71,1.9,1.9,0,0,0-.55-.19c-.26-.07-.44,0-.5.11-.25.63.15,2.07-.27,2.69S352.53,56.8,351.8,57.12Z" style="opacity:0.1"></path><path d="M343.91,53.3l-5.75-.39v0c.14-.63,2.38-10.66,2.49-11.2s-2.52-2.46-2.3-3.23,6.4-1,7.29.18a.42.42,0,0,1,.1.32c-.06.9-2.07,2-2.14,2.46C343.49,42.15,343.91,53.3,343.91,53.3Z" style="fill:#7A56C3"></path><path d="M339,38.38s3.8,1,6.15.23Z" style="fill:#263238"></path><path d="M338.17,52.88c.14-.63,2.38-10.66,2.49-11.2s-2.52-2.46-2.3-3.23,6.4-1,7.29.18a5.55,5.55,0,0,0-4.5-.17,2.49,2.49,0,0,0-.49.24c-.24.15-.38.31-.36.45.1.65,1.37,1.73,1.24,2.65S338.37,52.28,338.17,52.88Z" style="opacity:0.1"></path><path d="M319.44,49.56c-.21-.34-2-.17-3.09-.32a1.16,1.16,0,0,1-.84-.33c-.39-.7,4.6-6,5.59-4.88.61.68,0,2.9.23,3.26s3.55,3.46,6,5.73l0,0c1.45,1.37,2.61,2.43,2.61,2.43l-4.34,3.79S319.75,50,319.44,49.56Z" style="fill:#7A56C3"></path><path d="M316,48.38s3.36-2,4.5-4.19Z" style="fill:#263238"></path><path d="M316.35,49.24a1.16,1.16,0,0,1-.84-.33c-.39-.7,4.6-6,5.59-4.88.61.68,0,2.9.23,3.26s3.55,3.46,6,5.73c-2.55-1.67-6.68-4.71-6.84-5.11s-.11-2-.8-2.17a.76.76,0,0,0-.47.09,7.4,7.4,0,0,0-1.53,1,8.39,8.39,0,0,0-1.39,1.29.94.94,0,0,0-.16.2c-.19.26-.27.47-.2.61A.83.83,0,0,0,316.35,49.24Z" style="opacity:0.1"></path><path d="M306.9,71.3c-.19,0-.42-.45-.65-1.1-.72-2-1.34-6.14-.2-6.28.91-.1,2.39,1.68,2.82,1.67s5.95-1.2,9.2-1.92h0l2.42-.53.66,5.72-11.49-.43C309.12,68.42,307.71,71.37,306.9,71.3Z" style="fill:#7A56C3"></path><path d="M306.72,70.63s.25-3.91-.89-6.08Z" style="fill:#263238"></path><path d="M306.25,70.2c-.72-2-1.34-6.14-.2-6.28.91-.1,2.39,1.68,2.82,1.67s5.95-1.2,9.2-1.92c-3,1-8.85,2.85-9.12,2.81s-2.07-1.34-2.55-.87a.45.45,0,0,0-.1.17,2.58,2.58,0,0,0-.16.86A17.91,17.91,0,0,0,306.25,70.2Z" style="opacity:0.1"></path><path d="M325.84,82.82c-1.35-1.37-2.52-3-1.92-3.51s2.9,0,3.25-.23c.53-.37,6.12-6.38,7.75-8.14h0l.43-.47,3.79,4.34L329.45,81c-.47.31,0,3.53-.65,3.93C328.46,85.09,327.08,84.06,325.84,82.82Z" style="fill:#7A56C3"></path><path d="M328.26,84.46s-2-3.37-4.18-4.51Z" style="fill:#263238"></path><path d="M325.84,82.82c-1.35-1.37-2.52-3-1.92-3.51s2.9,0,3.25-.23c.53-.37,6.12-6.38,7.75-8.14h0s-6.76,9.21-7.28,9.25-2.57-.3-2.69.34a.8.8,0,0,0,0,.42A9.23,9.23,0,0,0,325.84,82.82Z" style="opacity:0.1"></path><path d="M334.72,102.37c.19-.44.92-.76,1.59-1s1.16-.41,1.25-.59c.36-.66,3.69-11.3,3.69-11.3l5.29,2.29s-.53.83-1.26,2c0,0,0,0,0,0l-4.83,7.7c-.29.48,1.55,3.18,1.1,3.83S334.12,103.75,334.72,102.37Z" style="fill:#7A56C3"></path><path d="M340.86,105.14s-3.27-2.17-5.72-2.26Z" style="fill:#263238"></path><path d="M334.72,102.37c.19-.44.92-.76,1.59-1a11.8,11.8,0,0,0-.61,1.28.36.36,0,0,0,.05.3.91.91,0,0,0,.27.29,6.35,6.35,0,0,0,2.55,1,3.31,3.31,0,0,0,.85.06h0c.21,0,.35-.08.4-.19.28-.68-.63-2.49-.07-3.39.41-.64,3.68-4.7,5.5-7l-4.83,7.7c-.29.48,1.55,3.18,1.1,3.83S334.12,103.75,334.72,102.37Z" style="opacity:0.1"></path><path d="M358,98.46c-.6-.68,0-2.91-.23-3.26-.44-.61-8.61-8.2-8.61-8.2l4.34-3.79s.23.36.58.94h0l5.57,8.76c.31.47,3.53,0,3.93.66.21.35-1,1.93-2.37,3.22h0C359.94,98,358.5,99,358,98.46Z" style="fill:#7A56C3"></path><path d="M363.17,94.11s-3.37,2-4.51,4.18Z" style="fill:#263238"></path><path d="M361.24,96.8a5.93,5.93,0,0,0,.76-1.6,1.22,1.22,0,0,0,.06-.35c0-.33-.09-.57-.4-.64-.83-.2-2.41.22-2.87-.2s-4.52-9.48-4.68-9.85l5.57,8.76c.31.47,3.53,0,3.93.66C363.82,93.93,362.6,95.51,361.24,96.8Z" style="opacity:0.1"></path><g style="opacity:0.1"><path d="M347,83.74c-.28.52-1.21.56-2.07.09s-1.34-1.27-1.05-1.79,1.21-.56,2.07-.09S347.28,83.23,347,83.74Z"></path><path d="M346.28,85.62a6.07,6.07,0,0,1-3.41-1.92,1.87,1.87,0,0,1-.43-2.1c.44-.93,1.33-.84,2.21-.86a0,0,0,0,0,0-.09c-1.48-.26-3.29.23-3.14,2.07.17,2.17,2.82,3.25,4.7,3.24C346.41,86,346.48,85.66,346.28,85.62Z"></path><path d="M341.63,55.12c-.1.58-1.24.86-2.54.63s-2.26-.88-2.16-1.47,1.24-.86,2.54-.63S341.74,54.54,341.63,55.12Z"></path><path d="M337.61,56.58A5.06,5.06,0,0,1,336,55.39a1.45,1.45,0,0,1,.27-2.14,4.41,4.41,0,0,1,3.57-.68c.07,0,.09-.1,0-.12-1.44-.37-3.77-.35-4.72,1-1.22,1.77,1.06,2.92,2.45,3.34C337.68,56.85,337.73,56.64,337.61,56.58Z"></path><path d="M327.44,63.73c-.05.59-.89,1-1.87.9s-1.73-.64-1.67-1.23.89-1,1.87-.9S327.5,63.14,327.44,63.73Z"></path><path d="M325.33,66a7.48,7.48,0,0,1-2.66-1.55c-1.29-1.59.93-2.36,2.13-2.63a.05.05,0,0,0,0-.1c-1.29,0-3.29.68-3.12,2.3s2.26,2.42,3.61,2.28A.16.16,0,0,0,325.33,66Z"></path><path d="M351.78,66.33c.06.45-.51.9-1.26,1s-1.42-.18-1.48-.63.5-.91,1.26-1S351.71,65.87,351.78,66.33Z"></path><path d="M350.57,68.39a6,6,0,0,1-2.28-.71c-1.25-1,.29-2,1.15-2.36,0,0,0-.09,0-.07-1,.24-2.36,1.09-2,2.28s2.13,1.43,3.13,1.09A.12.12,0,0,0,350.57,68.39Z"></path><path d="M358,73.54c.08.74-.84,1.43-2.06,1.56s-2.26-.36-2.34-1.09.85-1.43,2.06-1.56S357.93,72.81,358,73.54Z"></path><path d="M353.78,72.05a0,0,0,0,0,0-.06c-1.19.78-2.88,2.08-1.84,3.69a3.41,3.41,0,0,0,4.24,1c.12-.06.05-.23-.07-.23a5.8,5.8,0,0,1-3.07-.6C351.21,74.74,352.63,72.93,353.78,72.05Z"></path></g><path d="M323.19,66.82a34.24,34.24,0,0,1,0-11.66,29.44,29.44,0,0,1,.5,5.83A29.38,29.38,0,0,1,323.19,66.82Z" style="fill:#263238"></path><path d="M309.81,72a34.62,34.62,0,0,1-8.25-8.25A34.62,34.62,0,0,1,309.81,72Z" style="fill:#263238"></path><path d="M304,85.07a34.3,34.3,0,0,1-11.67,0,34.3,34.3,0,0,1,11.67,0Z" style="fill:#263238"></path><path d="M309.12,98.45a34.14,34.14,0,0,1-8.25,8.25,29.44,29.44,0,0,1,3.77-4.47A30.17,30.17,0,0,1,309.12,98.45Z" style="fill:#263238"></path><path d="M322.22,104.29a34.24,34.24,0,0,1,0,11.66,29.44,29.44,0,0,1-.5-5.83A30.15,30.15,0,0,1,322.22,104.29Z" style="fill:#263238"></path><path d="M335.61,99.14a35.12,35.12,0,0,1,8.25,8.25,34.14,34.14,0,0,1-8.25-8.25Z" style="fill:#263238"></path><path d="M341.44,86a34.24,34.24,0,0,1,11.66,0,29.44,29.44,0,0,1-5.83.5A30.15,30.15,0,0,1,341.44,86Z" style="fill:#263238"></path><path d="M336.29,72.65a30.09,30.09,0,0,1,3.78-4.47,29.44,29.44,0,0,1,4.47-3.77,29.44,29.44,0,0,1-3.77,4.47A29,29,0,0,1,336.29,72.65Z" style="fill:#263238"></path><path d="M330.25,68.27a12.32,12.32,0,0,1,2.62-6.42,10.75,10.75,0,0,1-.85,3.4A11,11,0,0,1,330.25,68.27Z" style="fill:#263238"></path><path d="M315.9,68a12.37,12.37,0,0,1-2.69-6.4A12.25,12.25,0,0,1,315.9,68Z" style="fill:#263238"></path><path d="M305.56,78a11,11,0,0,1-3.4-.85,10.81,10.81,0,0,1-3-1.78,11,11,0,0,1,3.4.85A11.32,11.32,0,0,1,305.56,78Z" style="fill:#263238"></path><path d="M305.29,92.31a10.88,10.88,0,0,1-3,1.8,11.08,11.08,0,0,1-3.4.89,12.25,12.25,0,0,1,6.4-2.69Z" style="fill:#263238"></path><path d="M315.25,102.65a11,11,0,0,1-.85,3.4,10.81,10.81,0,0,1-1.78,3,11,11,0,0,1,.85-3.4A11.32,11.32,0,0,1,315.25,102.65Z" style="fill:#263238"></path><path d="M329.6,102.92a10.88,10.88,0,0,1,1.8,3,11,11,0,0,1,.89,3.4,10.87,10.87,0,0,1-1.81-3A11,11,0,0,1,329.6,102.92Z" style="fill:#263238"></path><path d="M339.94,93a12.32,12.32,0,0,1,6.42,2.62,10.75,10.75,0,0,1-3.4-.85A10.88,10.88,0,0,1,339.94,93Z" style="fill:#263238"></path><path d="M340.2,78.61a11.08,11.08,0,0,1,3-1.8,10.73,10.73,0,0,1,3.4-.89,10.87,10.87,0,0,1-3,1.81A11,11,0,0,1,340.2,78.61Z" style="fill:#263238"></path><path d="M164.8,238.68l3.06-4.2c.13-.19-.54-1.37-.33-1.63s3,.9,2.73,1.46c-.18.33-1.14.42-1.24.57s-2.09,4.93-2.09,4.93Z" style="fill:#7A56C3"></path><path d="M167.8,233a6,6,0,0,0,2.3,1.13" style="fill:#263238"></path><path d="M164.8,238.68l3.06-4.2c.13-.19-.54-1.37-.33-1.63s3,.9,2.73,1.46c-.18.33-1.14.42-1.24.57s-2.09,4.93-2.09,4.93Z" style="opacity:0.1"></path><path d="M157.69,238.85s-.78-4.9-.81-5.13-1.35-.58-1.39-.92,2.78-1.5,3-.9c.12.36-.5,1.1-.47,1.28s2,5,2,5Z" style="fill:#7A56C3"></path><path d="M155.75,232.68a5.91,5.91,0,0,0,2.43-.83" style="fill:#263238"></path><path d="M157.69,238.85s-.78-4.9-.81-5.13-1.35-.58-1.39-.92,2.78-1.5,3-.9c.12.36-.5,1.1-.47,1.28s2,5,2,5Z" style="opacity:0.1"></path><path d="M152.78,244l-4.2-3.05c-.19-.14-1.37.54-1.63.33s.9-3,1.45-2.74c.34.18.42,1.14.57,1.24s4.94,2.1,4.94,2.1Z" style="fill:#7A56C3"></path><path d="M147,241a5.93,5.93,0,0,0,1.14-2.3" style="fill:#263238"></path><path d="M152.78,244l-4.2-3.05c-.19-.14-1.37.54-1.63.33s.9-3,1.45-2.74c.34.18.42,1.14.57,1.24s4.94,2.1,4.94,2.1Z" style="opacity:0.1"></path><path d="M153,251.11l-5.13.82c-.23,0-.59,1.35-.92,1.38s-1.51-2.77-.91-3c.36-.11,1.1.51,1.28.47s5-2,5-2Z" style="fill:#7A56C3"></path><path d="M146.77,253.05a6,6,0,0,0-.82-2.43" style="fill:#263238"></path><path d="M153,251.11l-5.13.82c-.23,0-.59,1.35-.92,1.38s-1.51-2.77-.91-3c.36-.11,1.1.51,1.28.47s5-2,5-2Z" style="opacity:0.1"></path><path d="M158.09,256l-3.05,4.2c-.13.18.54,1.37.33,1.63s-3-.9-2.73-1.46c.17-.33,1.14-.42,1.23-.57s2.1-4.93,2.1-4.93Z" style="fill:#7A56C3"></path><path d="M155.1,261.76a6,6,0,0,0-2.3-1.13" style="fill:#263238"></path><path d="M158.09,256l-3.05,4.2c-.13.18.54,1.37.33,1.63s-3-.9-2.73-1.46c.17-.33,1.14-.42,1.23-.57s2.1-4.93,2.1-4.93Z" style="opacity:0.1"></path><path d="M165.21,255.86s.78,4.9.81,5.13,1.35.58,1.38.92-2.77,1.5-3,.9c-.12-.36.5-1.1.46-1.28s-2-5-2-5Z" style="fill:#7A56C3"></path><path d="M167.15,262a5.91,5.91,0,0,0-2.43.83" style="fill:#263238"></path><path d="M165.21,255.86s.78,4.9.81,5.13,1.35.58,1.38.92-2.77,1.5-3,.9c-.12-.36.5-1.1.46-1.28s-2-5-2-5Z" style="opacity:0.1"></path><path d="M170.12,250.71l4.2,3c.19.14,1.37-.54,1.63-.33s-.9,3-1.45,2.74c-.34-.18-.42-1.14-.58-1.24s-4.93-2.1-4.93-2.1Z" style="fill:#7A56C3"></path><path d="M175.86,253.7a6,6,0,0,0-1.14,2.31" style="fill:#263238"></path><path d="M170.12,250.71l4.2,3c.19.14,1.37-.54,1.63-.33s-.9,3-1.45,2.74c-.34-.18-.42-1.14-.58-1.24s-4.93-2.1-4.93-2.1Z" style="opacity:0.1"></path><path d="M170,243.6l5.13-.82c.23,0,.59-1.35.92-1.38s1.51,2.77.91,3c-.36.11-1.1-.51-1.28-.47s-5,2-5,2Z" style="fill:#7A56C3"></path><path d="M176.13,241.66a6,6,0,0,0,.82,2.43" style="fill:#263238"></path><path d="M170,243.6l5.13-.82c.23,0,.59-1.35.92-1.38s1.51,2.77.91,3c-.36.11-1.1-.51-1.28-.47s-5,2-5,2Z" style="opacity:0.1"></path><path d="M163.73,237.92s3.11-6.17,3.23-6.37-.71-1.3-.53-1.59,3.13.53,2.9,1.12c-.13.36-1.08.56-1.16.73s-2.18,7-2.18,7Z" style="fill:#7A56C3"></path><path d="M166.72,230a6,6,0,0,0,2.43.85" style="fill:#263238"></path><path d="M156.52,239.19s-2.16-6.56-2.22-6.78-1.42-.43-1.49-.76,2.59-1.83,2.84-1.25c.16.34-.37,1.16-.31,1.33s3.39,6.48,3.39,6.48Z" style="fill:#7A56C3"></path><path d="M153.05,231.5a6.07,6.07,0,0,0,2.33-1.12" style="fill:#263238"></path><path d="M152.32,245.18,146,242c-.21-.11-1.3.7-1.59.52s.53-3.12,1.12-2.9c.36.14.56,1.09.72,1.17s7,2.18,7,2.18Z" style="fill:#7A56C3"></path><path d="M144.43,242.2a6,6,0,0,0,.86-2.43" style="fill:#263238"></path><path d="M153.59,252.39l-6.78,2.23c-.22.06-.42,1.41-.75,1.49s-1.84-2.59-1.26-2.85c.35-.15,1.16.38,1.33.32s6.49-3.4,6.49-3.4Z" style="fill:#7A56C3"></path><path d="M145.9,255.86a6,6,0,0,0-1.11-2.32" style="fill:#263238"></path><path d="M159.59,256.59s-3.11,6.17-3.22,6.37.7,1.3.52,1.59-3.13-.53-2.9-1.13c.13-.35,1.08-.55,1.16-.72s2.19-7,2.19-7Z" style="fill:#7A56C3"></path><path d="M156.61,264.48a6.12,6.12,0,0,0-2.44-.85" style="fill:#263238"></path><path d="M166.8,255.32s2.16,6.56,2.22,6.78,1.42.43,1.49.76-2.58,1.83-2.84,1.25c-.16-.34.37-1.16.31-1.33s-3.39-6.48-3.39-6.48Z" style="fill:#7A56C3"></path><path d="M170.27,263a6,6,0,0,0-2.32,1.12" style="fill:#263238"></path><path d="M171,249.33l6.37,3.22c.2.11,1.3-.7,1.58-.52s-.53,3.12-1.12,2.9c-.35-.14-.56-1.09-.72-1.17s-7-2.18-7-2.18Z" style="fill:#7A56C3"></path><path d="M178.89,252.31a5.89,5.89,0,0,0-.85,2.43" style="fill:#263238"></path><path d="M169.73,242.12l6.78-2.23c.23-.06.42-1.41.75-1.49s1.84,2.59,1.26,2.85c-.35.15-1.16-.38-1.33-.32s-6.48,3.4-6.48,3.4Z" style="fill:#7A56C3"></path><path d="M177.42,238.65a6,6,0,0,0,1.11,2.32" style="fill:#263238"></path><path d="M173.1,249.89c-1.47,6.31-7.47,10.59-13.88,9.09-4.06-1-7.35-3.33-8.77-6.88a12,12,0,0,1-.36-7.27c1.77-7.58,8.35-10.78,14.63-9.31a11,11,0,0,1,4.07,1.83C172.87,240.29,174.09,245.64,173.1,249.89Z" style="fill:#7A56C3"></path><path d="M173.1,249.89c-1.47,6.31-7.47,10.59-13.88,9.09-4.06-1-7.35-3.33-8.77-6.88,2.8,2.22,8.59,5.77,14.39,3,8-3.81,7.48-13,3.95-17.77C172.87,240.29,174.09,245.64,173.1,249.89Z" style="opacity:0.1"></path><path d="M162.55,238.57h-2.74s0-.11.05-.3c.17-1.11.74-4.87.78-5.1s-1.28-1.08-1.2-1.46c0-.17.76-.33,1.54-.39,1-.08,2,0,2,.39s-.92,1-.93,1.24S162.55,238.57,162.55,238.57Z" style="fill:#7A56C3"></path><path d="M159.76,231.66a6.86,6.86,0,0,0,2.92-.09Z" style="fill:#263238"></path><path d="M159.86,238.27c.17-1.11.74-4.87.78-5.1s-1.28-1.08-1.2-1.46c0-.17.76-.33,1.54-.39a2.23,2.23,0,0,0-.73.32.33.33,0,0,0-.06.08.24.24,0,0,0,.07.3c.25.29.85.63.87.93S159.91,238.12,159.86,238.27Z" style="opacity:0.1"></path><path d="M156,240.06,154.07,242l-.08-.1v0c-.51-.68-3-4.09-3.15-4.28s-1.67.13-1.88-.19.84-1.55,1.65-2.2c.36-.29.68-.45.84-.29.31.3.08,1.38.21,1.54S156,240.06,156,240.06Z" style="fill:#7A56C3"></path><path d="M149.14,237.14a6.8,6.8,0,0,0,2-2.13Z" style="fill:#263238"></path><path d="M154,241.87c-.51-.68-3-4.09-3.15-4.28s-1.67.13-1.88-.19.84-1.55,1.65-2.2a4.81,4.81,0,0,0-.74,1.17.77.77,0,0,0-.07.27c0,.12,0,.21.06.23.31.1,1-.14,1.29,0S153.8,241.54,154,241.87Z" style="opacity:0.1"></path><path d="M152.42,245.74v2.73h0l-5.38-.82c-.26,0-1.09,1.27-1.46,1.2s-.67-3-.15-3.47a.2.2,0,0,1,.15-.06c.43,0,1,.92,1.23.94C147.15,246.29,152.42,245.74,152.42,245.74Z" style="fill:#7A56C3"></path><path d="M145.5,248.53a6.74,6.74,0,0,0-.09-2.93Z" style="fill:#263238"></path><path d="M152.4,248.47l-5.38-.82c-.26,0-1.09,1.27-1.46,1.2s-.67-3-.15-3.47a2.68,2.68,0,0,0,.06,2.14,1.42,1.42,0,0,0,.13.22c.08.12.16.18.23.17.3-.07.77-.71,1.21-.68S152.11,248.4,152.4,248.47Z" style="opacity:0.1"></path><path d="M151.43,257.46c-.15.11,0,.94-.05,1.47a.57.57,0,0,1-.13.41c-.32.21-3-2-2.49-2.49.3-.31,1.37-.08,1.53-.21s1.53-1.8,2.53-3a0,0,0,0,1,0,0l1.07-1.31,1.93,1.93Z" style="fill:#7A56C3"></path><path d="M151,259.15a6.91,6.91,0,0,0-2.13-2Z" style="fill:#263238"></path><path d="M151.38,258.93a.57.57,0,0,1-.13.41c-.32.21-3-2-2.49-2.49.3-.31,1.37-.08,1.53-.21s1.53-1.8,2.53-3a26,26,0,0,1-2.2,3.41c-.26.12-.94.12-1,.45a.61.61,0,0,0,.06.22,3.9,3.9,0,0,0,.5.7,4.49,4.49,0,0,0,.66.61.46.46,0,0,0,.1.07c.13.08.23.11.3.08A.43.43,0,0,0,151.38,258.93Z" style="opacity:0.1"></path><path d="M162.69,262.73c0,.09-.23.18-.55.25-1,.23-3,.3-3-.25s.92-1,.93-1.24-.24-2.87-.4-4.45h0l-.12-1.17h2.74l-.83,5.4C161.45,261.53,162.77,262.36,162.69,262.73Z" style="fill:#7A56C3"></path><path d="M162.37,262.78a6.86,6.86,0,0,0-2.92.09Z" style="fill:#263238"></path><path d="M162.14,263c-1,.23-3,.3-3-.25s.92-1,.93-1.24-.24-2.87-.4-4.45c.3,1.48.86,4.34.83,4.46s-.74.91-.55,1.16l.08.06a1.2,1.2,0,0,0,.39.12A9.31,9.31,0,0,0,162.14,263Z" style="opacity:0.1"></path><path d="M172.29,258.5c-.61.69-1.34,1.29-1.6,1s-.08-1.38-.21-1.54-3.23-2.69-4.11-3.41h0l-.24-.19,1.93-1.94,3.24,4.4c.16.21,1.67-.13,1.88.19C173.28,257.19,172.84,257.88,172.29,258.5Z" style="fill:#7A56C3"></path><path d="M173,257.3a6.8,6.8,0,0,0-2,2.13Z" style="fill:#263238"></path><path d="M172.29,258.5c-.61.69-1.34,1.29-1.6,1s-.08-1.38-.21-1.54-3.23-2.69-4.11-3.41h0s4.58,2.91,4.62,3.15-.06,1.23.24,1.27a.54.54,0,0,0,.2,0A4.19,4.19,0,0,0,172.29,258.5Z" style="opacity:0.1"></path><path d="M176.57,249.12c-.22,0-.5-.26-.74-.51s-.4-.42-.49-.43c-.36,0-5.63.53-5.63.53V246l1.11.17h0l4.27.65c.27,0,1.09-1.27,1.46-1.2S177.29,249.12,176.57,249.12Z" style="fill:#7A56C3"></path><path d="M176.63,245.92a6.69,6.69,0,0,0,.09,2.92Z" style="fill:#263238"></path><path d="M176.57,249.12c-.22,0-.5-.26-.74-.51a4.79,4.79,0,0,0,.67,0,.2.2,0,0,0,.13-.08.54.54,0,0,0,.07-.17,3,3,0,0,0,0-1.3,1.48,1.48,0,0,0-.13-.39h0c-.05-.09-.1-.14-.16-.14-.35,0-1,.74-1.46.67s-2.75-.72-4.07-1.09l4.27.65c.27,0,1.09-1.27,1.46-1.2S177.29,249.12,176.57,249.12Z" style="opacity:0.1"></path><path d="M173.37,237.6c-.3.3-1.37.08-1.53.21s-3.61,4.35-3.61,4.35l-1.94-1.94.43-.31h0c1.07-.79,3.8-2.8,4-2.92s-.14-1.68.18-1.89c.16-.11,1,.42,1.61,1h0C173.11,236.7,173.62,237.35,173.37,237.6Z" style="fill:#7A56C3"></path><path d="M171.15,235.3a6.85,6.85,0,0,0,2.12,2Z" style="fill:#263238"></path><path d="M172.49,236.12a2.77,2.77,0,0,0-.79-.3.35.35,0,0,0-.17,0c-.16,0-.26.06-.29.21-.07.4.18,1.13,0,1.37s-4.35,2.44-4.52,2.53c1.07-.79,3.8-2.8,4-2.92s-.14-1.68.18-1.89C171,235,171.83,235.52,172.49,236.12Z" style="opacity:0.1"></path><g style="opacity:0.1"><path d="M157.76,254.55c-.12.26-.56.31-1,.11s-.68-.56-.56-.82.56-.3,1-.1S157.87,254.3,157.76,254.55Z"></path><path d="M157.47,255.46a2.87,2.87,0,0,1-1.67-.79.88.88,0,0,1-.27-1c.17-.45.6-.44,1-.48,0,0,0,0,0,0-.71-.08-1.56.22-1.43,1.08.16,1,1.45,1.45,2.34,1.39A.09.09,0,0,0,157.47,255.46Z"></path><path d="M159.36,240c0,.28-.43.57-1.05.65s-1.16-.07-1.2-.35.44-.57,1.06-.65S159.33,239.72,159.36,240Z"></path><path d="M157.76,241.24a2.31,2.31,0,0,1-.93-.3.69.69,0,0,1-.19-1,2.1,2.1,0,0,1,1.52-.83s0-.06,0-.05c-.7,0-1.76.38-2,1.14-.29,1,.91,1.17,1.6,1.15C157.82,241.35,157.82,241.25,157.76,241.24Z"></path><path d="M168.09,243.53c0,.28-.39.5-.86.48s-.84-.25-.83-.53.39-.49.86-.48S168.1,243.25,168.09,243.53Z"></path><path d="M167.16,244.65a3.58,3.58,0,0,1-1.31-.65c-.66-.71.37-1.15.93-1.31a0,0,0,0,0,0-.05c-.61.06-1.54.43-1.41,1.19s1.15,1.07,1.79,1A.08.08,0,0,0,167.16,244.65Z"></path><path d="M154.58,251.41c0,.22-.31.38-.68.36s-.64-.21-.63-.43.31-.38.67-.36S154.59,251.19,154.58,251.41Z"></path><path d="M153.84,252.26a2.61,2.61,0,0,1-1-.53c-.51-.56.3-.88.74-1,0,0,0,0,0,0-.47,0-1.2.3-1.11.89s.87.85,1.36.78C153.88,252.37,153.89,252.29,153.84,252.26Z"></path><path d="M170.25,251.69c.06.34-.35.7-.93.8s-1.08-.1-1.14-.44.36-.71.93-.81S170.19,251.34,170.25,251.69Z"></path><path d="M168.2,251.11s0,0,0,0c-.54.41-1.3,1.07-.75,1.8a1.63,1.63,0,0,0,2,.33.06.06,0,0,0,0-.11,2.78,2.78,0,0,1-1.48-.19C167.07,252.47,167.69,251.57,168.2,251.11Z"></path></g><path d="M364.61,279.73l6.64-15.86c.3-.71-2.78-4-2.3-5s10.44.58,9.91,2.6c-.31,1.21-3.34,2.22-3.54,2.78-.36,1-3,17.49-3,17.49Z" style="fill:#7A56C3"></path><path d="M369.9,259s4.91,2.29,8.28,1.9" style="fill:#263238"></path><path d="M364.61,279.73l6.64-15.86c.3-.71-2.78-4-2.3-5s10.44.58,9.91,2.6c-.31,1.21-3.34,2.22-3.54,2.78-.36,1-3,17.49-3,17.49Z" style="opacity:0.1"></path><path d="M341.82,285.67l-6.52-15.9c-.29-.71-4.8-.86-5.16-1.91s7.79-7,8.85-5.17c.64,1.08-.79,3.94-.54,4.48.44.94,10.24,14.49,10.24,14.49Z" style="fill:#7A56C3"></path><path d="M330.88,267.26s5.09-1.86,7.2-4.51" style="fill:#263238"></path><path d="M341.82,285.67l-6.52-15.9c-.29-.71-4.8-.86-5.16-1.91s7.79-7,8.85-5.17c.64,1.08-.79,3.94-.54,4.48.44.94,10.24,14.49,10.24,14.49Z" style="opacity:0.1"></path><path d="M329.9,306l-15.85-6.64c-.71-.3-4,2.78-5,2.29s.59-10.43,2.6-9.91c1.22.32,2.22,3.35,2.79,3.55,1,.35,17.48,3,17.48,3Z" style="fill:#7A56C3"></path><path d="M309.15,300.71s2.28-4.91,1.9-8.28" style="fill:#263238"></path><path d="M329.9,306l-15.85-6.64c-.71-.3-4,2.78-5,2.29s.59-10.43,2.6-9.91c1.22.32,2.22,3.35,2.79,3.55,1,.35,17.48,3,17.48,3Z" style="opacity:0.1"></path><path d="M335.85,328.79,320,335.31c-.72.29-.86,4.79-1.92,5.16s-7-7.8-5.16-8.85c1.08-.64,3.93.79,4.48.54.93-.44,14.49-10.24,14.49-10.24Z" style="fill:#7A56C3"></path><path d="M317.43,339.73s-1.85-5.09-4.5-7.2" style="fill:#263238"></path><path d="M335.85,328.79,320,335.31c-.72.29-.86,4.79-1.92,5.16s-7-7.8-5.16-8.85c1.08-.64,3.93.79,4.48.54.93-.44,14.49-10.24,14.49-10.24Z" style="opacity:0.1"></path><path d="M356.17,340.71s-6.34,15.14-6.63,15.85,2.78,4,2.29,5-10.43-.59-9.91-2.6c.32-1.22,3.34-2.22,3.55-2.79.35-1,3-17.48,3-17.48Z" style="fill:#7A56C3"></path><path d="M350.88,361.46s-4.9-2.28-8.27-1.9" style="fill:#263238"></path><path d="M356.17,340.71s-6.34,15.14-6.63,15.85,2.78,4,2.29,5-10.43-.59-9.91-2.6c.32-1.22,3.34-2.22,3.55-2.79.35-1,3-17.48,3-17.48Z" style="opacity:0.1"></path><path d="M379,334.76s6.22,15.19,6.52,15.9,4.79.86,5.15,1.91-7.79,7-8.84,5.17c-.64-1.08.79-3.93.53-4.48-.44-.93-10.23-14.49-10.23-14.49Z" style="fill:#7A56C3"></path><path d="M389.91,353.18s-5.09,1.85-7.2,4.5" style="fill:#263238"></path><path d="M379,334.76s6.22,15.19,6.52,15.9,4.79.86,5.15,1.91-7.79,7-8.84,5.17c-.64-1.08.79-3.93.53-4.48-.44-.93-10.23-14.49-10.23-14.49Z" style="opacity:0.1"></path><path d="M390.88,314.43l15.86,6.64c.71.3,4-2.78,5-2.29s-.58,10.43-2.6,9.91c-1.21-.32-2.22-3.34-2.78-3.55-1-.35-17.49-3-17.49-3Z" style="fill:#7A56C3"></path><path d="M411.64,319.73s-2.29,4.9-1.9,8.27" style="fill:#263238"></path><path d="M390.88,314.43l15.86,6.64c.71.3,4-2.78,5-2.29s-.58,10.43-2.6,9.91c-1.21-.32-2.22-3.34-2.78-3.55-1-.35-17.49-3-17.49-3Z" style="opacity:0.1"></path><path d="M384.94,291.64l15.9-6.52c.71-.29.86-4.79,1.91-5.15s7,7.79,5.17,8.84c-1.08.64-3.94-.79-4.48-.53-.94.43-14.49,10.23-14.49,10.23Z" style="fill:#7A56C3"></path><path d="M403.35,280.7s1.86,5.09,4.51,7.2" style="fill:#263238"></path><path d="M384.94,291.64l15.9-6.52c.71-.29.86-4.79,1.91-5.15s7,7.79,5.17,8.84c-1.08.64-3.94-.79-4.48-.53-.94.43-14.49,10.23-14.49,10.23Z" style="opacity:0.1"></path><path d="M360.58,278.08s5.33-22.23,5.54-23-3.26-3.66-2.89-4.71,10.48-.67,10.2,1.4c-.17,1.25-3.07,2.62-3.21,3.21-.23,1-1.72,24.16-1.72,24.16Z" style="fill:#7A56C3"></path><path d="M364.19,250.38s5.17,1.69,8.48.9" style="fill:#263238"></path><path d="M338.31,287.65S326.37,268.16,326,267.48s-4.88-.28-5.37-1.28,6.93-7.89,8.2-6.22c.77,1-.32,4,0,4.53.55.88,15.87,18.31,15.87,18.31Z" style="fill:#7A56C3"></path><path d="M321.28,265.51s4.85-2.46,6.64-5.36" style="fill:#263238"></path><path d="M329.34,310.15s-22.23-5.33-23-5.54-3.65,3.26-4.71,2.89-.67-10.48,1.4-10.2c1.25.17,2.62,3.07,3.21,3.21,1,.23,24.16,1.72,24.16,1.72Z" style="fill:#7A56C3"></path><path d="M301.64,306.54s1.69-5.17.9-8.48" style="fill:#263238"></path><path d="M338.91,332.42s-19.49,11.94-20.16,12.32-.28,4.89-1.29,5.37-7.88-6.93-6.22-8.2c1-.77,4,.32,4.54,0,.88-.55,18.3-15.87,18.3-15.87Z" style="fill:#7A56C3"></path><path d="M316.77,349.45s-2.46-4.85-5.36-6.64" style="fill:#263238"></path><path d="M361.42,341.39s-5.33,22.23-5.55,23,3.26,3.66,2.89,4.71-10.48.67-10.2-1.4c.17-1.25,3.07-2.62,3.21-3.21.23-1,1.73-24.16,1.73-24.16Z" style="fill:#7A56C3"></path><path d="M357.81,369.09s-5.17-1.69-8.49-.9" style="fill:#263238"></path><path d="M383.68,331.82S395.63,351.31,396,352s4.89.29,5.37,1.29-6.93,7.88-8.2,6.22c-.76-1,.32-4,0-4.53-.55-.89-15.86-18.31-15.86-18.31Z" style="fill:#7A56C3"></path><path d="M400.71,354s-4.85,2.46-6.64,5.36" style="fill:#263238"></path><path d="M392.65,309.31s22.23,5.33,23,5.55,3.66-3.26,4.71-2.89.67,10.48-1.4,10.2c-1.25-.17-2.62-3.07-3.21-3.21-1-.23-24.16-1.73-24.16-1.73Z" style="fill:#7A56C3"></path><path d="M420.35,312.92s-1.69,5.17-.9,8.49" style="fill:#263238"></path><path d="M383.08,287.05s19.49-11.95,20.17-12.32.28-4.89,1.28-5.37,7.89,6.93,6.22,8.2c-1,.76-4-.32-4.53,0-.88.55-18.31,15.86-18.31,15.86Z" style="fill:#7A56C3"></path><path d="M405.22,270s2.46,4.85,5.36,6.64" style="fill:#263238"></path><path d="M398.89,318.45c-4.9,20.88-24.74,35.08-46,30.1-12.74-3-23.2-10.23-28.25-21-3.36-7.16-4.33-15.86-2-25.87,5.87-25.07,27.66-35.69,48.43-30.82a35.72,35.72,0,0,1,21.07,13.55C399.55,294.33,401.45,307.51,398.89,318.45Z" style="fill:#7A56C3"></path><path d="M398.89,318.45c-4.9,20.88-24.74,35.08-46,30.1-12.74-3-23.2-10.23-28.25-21,10.43,7.72,29.3,17.87,48.2,8.91,23.12-11,25.92-34.66,19.32-52.05C399.55,294.33,401.45,307.51,398.89,318.45Z" style="opacity:0.1"></path><path d="M357.27,281.09l-8.83,2.08s0-.37-.08-1c-.3-3.69-1.3-16.26-1.37-17s-4.93-2.54-5-3.81c0-.57,2.2-1.64,4.67-2.44,3-1,6.38-1.5,6.68-.24s-2.17,4-2.07,4.7C351.47,264.53,357.27,281.09,357.27,281.09Z" style="fill:#7A56C3"></path><path d="M343,260.93s6.16-.32,9.35-2.51Z" style="fill:#263238"></path><path d="M348.36,282.15c-.3-3.69-1.3-16.26-1.37-17s-4.93-2.54-5-3.81c0-.57,2.2-1.64,4.67-2.44a6.92,6.92,0,0,0-2.1,1.6.79.79,0,0,0-.13.31c-.11.35.05.64.44.92,1,.72,3.22,1.38,3.51,2.3S348.4,281.62,348.36,282.15Z" style="opacity:0.1"></path><path d="M337.3,290.84l-4.77,7.71s-.11-.1-.32-.26a.28.28,0,0,0-.06-.06c-2.15-1.82-12.79-10.89-13.39-11.4s-5.28,1.7-6.21.83c-.63-.59,1.54-5.66,3.63-8.35.95-1.23,1.87-2,2.51-1.57,1.21.74,1.31,4.38,1.85,4.78C321.47,283.23,337.3,290.84,337.3,290.84Z" style="fill:#7A56C3"></path><path d="M313,286.66s4.13-4.58,4.84-8.38Z" style="fill:#263238"></path><path d="M332.15,298.23c-2.15-1.82-12.79-10.89-13.39-11.4s-5.28,1.7-6.21.83c-.63-.59,1.54-5.66,3.63-8.35a16.13,16.13,0,0,0-1.47,4.32,3.31,3.31,0,0,0,0,.92c0,.42.14.68.39.7,1.07.09,3.05-1.18,4.18-.84S331.33,297.29,332.15,298.23Z" style="opacity:0.1"></path><path d="M330.07,311.87l2.08,8.82h-.06l-18,1.44c-.87.09-2.53,4.94-3.79,5s-4.43-9.19-3.11-11.05a.74.74,0,0,1,.43-.31c1.38-.32,4,2.18,4.69,2.09C313.51,317.67,330.07,311.87,330.07,311.87Z" style="fill:#7A56C3"></path><path d="M309.9,326.11s-.32-6.16-2.5-9.34Z" style="fill:#263238"></path><path d="M332.09,320.69l-18,1.44c-.87.09-2.53,4.94-3.79,5s-4.43-9.19-3.11-11.05c-.63,2.42.65,5.34,1.83,6.83a4.59,4.59,0,0,0,.58.63c.35.3.65.43.85.35.93-.45,2-2.87,3.41-3.11S331.11,320.67,332.09,320.69Z" style="opacity:0.1"></path><path d="M335.8,350.38c-.42.48.67,3.06.95,4.79a1.8,1.8,0,0,1-.11,1.42c-.87.91-11.18-4.13-9.93-6.14.74-1.22,4.38-1.3,4.8-1.85s3.55-7,5.83-11.66l0,0c1.38-2.82,2.45-5,2.45-5l7.71,4.76S336.36,349.7,335.8,350.38Z" style="fill:#7A56C3"></path><path d="M335.63,356.17s-4.58-4.13-8.38-4.84Z" style="fill:#263238"></path><path d="M336.75,355.17a1.8,1.8,0,0,1-.11,1.42c-.87.91-11.18-4.13-9.93-6.14.74-1.22,4.38-1.3,4.8-1.85s3.55-7,5.83-11.66c-1.32,4.62-4,12.24-4.51,12.65-.72.57-2.92,1.09-2.89,2.21a1.33,1.33,0,0,0,.37.67,11.74,11.74,0,0,0,2.14,1.86,13.59,13.59,0,0,0,2.59,1.49,1.8,1.8,0,0,0,.37.15c.48.16.84.18,1,0A1.41,1.41,0,0,0,336.75,355.17Z" style="opacity:0.1"></path><path d="M376.09,358.82c0,.3-.63.75-1.6,1.22-3,1.49-9.34,3.21-9.77,1.46-.33-1.4,2.19-4,2.08-4.7s-3-9.08-4.68-14v0l-1.27-3.68,8.82-2.08s1.37,17.14,1.44,18S376.05,357.55,376.09,358.82Z" style="fill:#7A56C3"></path><path d="M375.08,359.23s-6.16.32-9.34,2.5Z" style="fill:#263238"></path><path d="M374.49,360c-3,1.49-9.34,3.21-9.77,1.46-.33-1.4,2.19-4,2.08-4.7s-3-9.08-4.68-14c2.07,4.51,6.08,13.3,6.06,13.73s-1.7,3.48-.89,4.15a.6.6,0,0,0,.29.12,4.51,4.51,0,0,0,1.37.1A29.68,29.68,0,0,0,374.49,360Z" style="opacity:0.1"></path><path d="M403.79,337.9c-1.43,2.67-3.32,5.17-4.37,4.52-1.22-.75-1.31-4.38-1.85-4.78-.82-.62-12.44-6.25-15.83-7.87v0l-.92-.43,4.77-7.71s13.09,11.16,13.77,11.72,5.28-1.7,6.21-.84C406,332.91,405.08,335.47,403.79,337.9Z" style="fill:#7A56C3"></path><path d="M405.14,333.5s-4.13,4.58-4.84,8.38Z" style="fill:#263238"></path><path d="M403.79,337.9c-1.43,2.67-3.32,5.17-4.37,4.52-1.22-.75-1.31-4.38-1.85-4.78-.82-.62-12.44-6.25-15.83-7.87v0s17,5.89,17.28,6.66.74,4,1.76,3.88a1.64,1.64,0,0,0,.61-.25A14.42,14.42,0,0,0,403.79,337.9Z" style="opacity:0.1"></path><path d="M410.46,304.41c-.73.17-1.82-.46-2.78-1.06s-1.6-1.07-1.92-1c-1.16.16-17.72,6-17.72,6L386,299.47l3.7-.3h.06c5.1-.4,13.66-1.08,14.26-1.14.88-.09,2.55-4.94,3.8-5S412.78,303.86,410.46,304.41Z" style="fill:#7A56C3"></path><path d="M408.2,294.05s.32,6.16,2.51,9.34Z" style="fill:#263238"></path><path d="M410.46,304.41c-.73.17-1.82-.46-2.78-1.06a18.45,18.45,0,0,0,2.19-.44.6.6,0,0,0,.34-.34,1.71,1.71,0,0,0,.11-.61,9.92,9.92,0,0,0-1.12-4.17,4.88,4.88,0,0,0-.72-1.14h0c-.22-.25-.43-.38-.61-.33-1.12.29-2.54,3.13-4.22,3.27-1.19.09-9.38-.23-13.93-.41,5.1-.4,13.66-1.08,14.26-1.14.88-.09,2.55-4.94,3.8-5S412.78,303.86,410.46,304.41Z" style="opacity:0.1"></path><path d="M391.4,269.71c-.75,1.22-4.38,1.3-4.8,1.85-.7.95-8.32,16.76-8.32,16.76l-7.71-4.77s.43-.51,1.14-1.32h0l10.59-12.44c.55-.68-1.71-5.28-.84-6.21.43-.47,3.36.62,5.94,2.07h0C389.87,267,392,268.73,391.4,269.71Z" style="fill:#7A56C3"></path><path d="M382.47,264s4.58,4.13,8.38,4.84Z" style="fill:#263238"></path><path d="M387.41,265.64a9.36,9.36,0,0,0-2.76-.39,1.63,1.63,0,0,0-.56.06c-.5.13-.8.41-.77.9.09,1.35,1.44,3.52,1,4.41s-12.17,11.19-12.64,11.6l10.59-12.44c.55-.68-1.71-5.28-.84-6.21C381.9,263.1,384.83,264.19,387.41,265.64Z" style="opacity:0.1"></path><g style="opacity:0.1"><path d="M348.07,333.89c-.39.85-1.84,1-3.25.36s-2.22-1.86-1.83-2.7,1.84-1,3.24-.36S348.46,333.05,348.07,333.89Z"></path><path d="M347.13,336.91a9.55,9.55,0,0,1-5.55-2.64,3,3,0,0,1-.89-3.26c.58-1.5,2-1.45,3.37-1.58.07,0,.1-.13,0-.14-2.36-.26-5.15.71-4.73,3.58.51,3.39,4.78,4.8,7.73,4.58C347.37,337.43,347.45,337,347.13,336.91Z"></path><path d="M353.39,285.71c.12.92-1.44,1.89-3.5,2.17s-3.82-.25-3.95-1.17,1.45-1.89,3.5-2.17S353.27,284.79,353.39,285.71Z"></path><path d="M348.07,289.83a8.09,8.09,0,0,1-3.07-1,2.29,2.29,0,0,1-.61-3.34c1.05-1.7,3.14-2.43,5-2.73.12,0,.09-.18,0-.18-2.33.14-5.82,1.27-6.58,3.79-1,3.24,3,3.86,5.27,3.82C348.29,290.2,348.27,289.86,348.07,289.83Z"></path><path d="M382.29,297.39c0,.93-1.3,1.65-2.84,1.61s-2.78-.82-2.76-1.75,1.3-1.65,2.84-1.61S382.31,296.47,382.29,297.39Z"></path><path d="M379.2,301.12c-1.43-.61-3.21-1-4.32-2.15-2.2-2.36,1.19-3.8,3.05-4.35a.08.08,0,0,0,0-.16c-2,.18-5.08,1.42-4.65,3.94s3.81,3.55,5.91,3.19A.25.25,0,0,0,379.2,301.12Z"></path><path d="M337.55,323.49c0,.72-1,1.25-2.23,1.19s-2.14-.7-2.1-1.41,1-1.26,2.23-1.2S337.59,322.77,337.55,323.49Z"></path><path d="M335.09,326.32c-1.1-.5-2.47-.82-3.31-1.76-1.66-1.87,1-2.92,2.45-3.31a.06.06,0,1,0,0-.12c-1.56.1-4,1-3.68,3s2.89,2.82,4.52,2.59A.19.19,0,0,0,335.09,326.32Z"></path><path d="M389.44,324.4c.2,1.14-1.18,2.33-3.07,2.66s-3.59-.32-3.79-1.46,1.18-2.33,3.07-2.66S389.24,323.27,389.44,324.4Z"></path><path d="M382.65,322.5s0-.12-.06-.08c-1.79,1.35-4.3,3.56-2.5,6a5.39,5.39,0,0,0,6.76,1.07.2.2,0,0,0-.13-.36,9.07,9.07,0,0,1-4.89-.62C378.9,327,381,324,382.65,322.5Z"></path></g></g></svg>