<?xml version="1.0" encoding="iso-8859-1"?>
<!-- Uploaded to: SVG Repo, www.svgrepo.com, Generator: SVG Repo Mixer Tools -->
<svg version="1.1" id="Layer_1" xmlns="http://www.w3.org/2000/svg" xmlns:xlink="http://www.w3.org/1999/xlink" 
	 viewBox="0 0 392.663 392.663" xml:space="preserve">
<path style="fill:#194F82;" d="M154.796,63.483h30.707V94.19c0,6.012,4.848,10.925,10.925,10.925
	c6.012,0,10.925-4.848,10.925-10.925V63.483h30.707c6.012,0,10.925-4.848,10.925-10.925c0-6.012-4.848-10.925-10.925-10.925h-30.707
	V10.925C207.353,4.913,202.505,0,196.428,0c-6.012,0-10.925,4.848-10.925,10.925v30.707h-30.707
	c-6.012,0-10.925,4.848-10.925,10.925C143.87,58.634,148.784,63.483,154.796,63.483z"/>
<g>
	<polygon style="fill:#56ACE0;" points="41.276,87.273 21.883,87.273 21.883,370.877 41.276,370.877 	"/>
	<polygon style="fill:#56ACE0;" points="351.45,370.877 370.844,370.877 370.844,306.683 351.45,306.683 	"/>
	<rect x="63.062" y="265.374" style="fill:#56ACE0;" width="307.717" height="19.394"/>
</g>
<g>
	<path style="fill:#FFC10D;" d="M63.062,243.588h62.255c-5.042-24.178-26.505-42.343-52.17-42.343H63.062V243.588z"/>
	<path style="fill:#FFC10D;" d="M350.222,226.78c0-10.731-8.727-19.394-19.394-19.394H186.796v36.331h163.426V226.78z"/>
</g>
<path style="fill:#194F82;" d="M381.769,243.588h-9.632V226.65c0-22.691-18.489-41.244-41.244-41.244H175.87
	c-6.012,0-10.925,4.848-10.925,10.925v47.192h-17.455c-5.301-36.267-36.525-64.129-74.214-64.129H63.062V87.273
	c0-12.024-9.826-21.786-21.786-21.786H21.883c-11.96,0-21.786,9.762-21.786,21.786v283.604c0,11.96,9.826,21.786,21.786,21.786
	h19.394c12.024,0,21.786-9.826,21.786-21.786v-64.194H329.6v64.194c0,12.024,9.826,21.786,21.786,21.786h19.394
	c12.024,0,21.786-9.826,21.786-21.786V254.513C392.63,248.501,387.781,243.588,381.769,243.588z M370.844,370.877H351.45v-64.194
	h19.394V370.877z M125.382,243.588H63.062v-42.343h10.214C98.876,201.244,120.339,219.475,125.382,243.588z M63.062,265.374h307.717
	v19.394H63.062C63.062,284.768,63.062,265.374,63.062,265.374z M186.796,207.321h144.032c10.731,0,19.394,8.727,19.394,19.394
	v16.873H186.796V207.321z M21.883,87.273h19.394v283.604H21.883V87.273z"/>
</svg>